<svg width="170" height="50" viewBox="0 0 170 50" fill="none" xmlns="http://www.w3.org/2000/svg">
<rect x="0.5" y="0.5" width="169" height="49" rx="6.5" fill="black"/>
<path fill-rule="evenodd" clip-rule="evenodd" d="M38.167 17.24C38.998 16.2538 39.4149 15.1882 39.4149 14.047V14.047C39.4149 13.8956 39.4079 13.7431 39.391 13.5905C38.8121 13.6205 38.1965 13.7959 37.5458 14.1131C36.8936 14.435 36.3559 14.8386 35.933 15.324C35.0861 16.2827 34.6092 17.4551 34.6092 18.5507C34.6092 18.7021 34.6189 18.8462 34.6357 18.9831C35.951 19.09 37.1641 18.4125 38.167 17.24ZM42.5912 33.5792C43.0644 32.9045 43.4729 32.1707 43.818 31.3734C43.9603 31.0354 44.0942 30.6833 44.2208 30.3156C43.6364 30.0705 43.1109 29.7255 42.6405 29.279C41.6024 28.3169 41.0742 27.1053 41.0588 25.6493C41.0419 23.78 41.8911 22.3229 43.6081 21.2825C42.6489 19.9191 41.2066 19.1623 39.2867 19.0073C38.5782 18.9472 37.7134 19.0999 36.6887 19.4686C35.6051 19.8662 34.9659 20.0657 34.7773 20.0657C34.5251 20.0657 33.9497 19.8951 33.0536 19.5588C32.1549 19.2235 31.4318 19.053 30.8804 19.053C29.8725 19.0697 28.9367 19.3317 28.0706 19.8458C27.2045 20.3599 26.5125 21.0603 25.9923 21.9481C25.3304 23.0533 25 24.3723 25 25.9016C25 27.2366 25.2451 28.6155 25.734 30.0396C26.1905 31.358 26.7732 32.5144 27.482 33.5116C28.1426 34.4455 28.694 35.1047 29.1349 35.4892C29.8256 36.1315 30.5177 36.4371 31.2119 36.4076C31.6684 36.3921 32.2655 36.2357 33.0067 35.9357C33.7467 35.6371 34.4386 35.4892 35.0837 35.4892C35.6988 35.4892 36.3715 35.6371 37.1035 35.9357C37.8331 36.2357 38.4599 36.3836 38.9797 36.3836C39.7037 36.3667 40.3798 36.0695 41.0108 35.4892C41.4179 35.1356 41.9461 34.499 42.5912 33.5792Z" fill="#00D54B"/>
<path d="M61.91 19.408H65.318L68.906 28H65.93L65.378 26.5H61.802L61.238 28H58.274L61.91 19.408ZM64.862 24.736L63.602 21.364H63.578L62.306 24.736H64.862ZM70.0378 19.408H75.6538C76.7898 19.408 77.6778 19.676 78.3178 20.212C78.9578 20.74 79.2778 21.472 79.2778 22.408C79.2698 23.336 78.9418 24.064 78.2938 24.592C77.6538 25.112 76.7658 25.372 75.6298 25.372H72.9058L72.8938 28H70.0378V19.408ZM74.8978 23.56C75.3778 23.56 75.7458 23.456 76.0018 23.248C76.2658 23.032 76.3978 22.736 76.3978 22.36C76.3978 22 76.2658 21.72 76.0018 21.52C75.7378 21.32 75.3698 21.22 74.8978 21.22H72.8938L72.9058 23.56H74.8978ZM80.6159 19.408H86.2319C87.3679 19.408 88.2559 19.676 88.8959 20.212C89.5359 20.74 89.8559 21.472 89.8559 22.408C89.8479 23.336 89.5199 24.064 88.8719 24.592C88.2319 25.112 87.3439 25.372 86.2079 25.372H83.4839L83.4719 28H80.6159V19.408ZM85.4759 23.56C85.9559 23.56 86.3239 23.456 86.5799 23.248C86.8439 23.032 86.9759 22.736 86.9759 22.36C86.9759 22 86.8439 21.72 86.5799 21.52C86.3159 21.32 85.9479 21.22 85.4759 21.22H83.4719L83.4839 23.56H85.4759ZM98.6164 28.276C97.5284 28.276 96.5524 28.084 95.6884 27.7C94.8244 27.316 94.2284 26.788 93.9004 26.116L95.6164 24.964C95.8964 25.38 96.3284 25.716 96.9124 25.972C97.4964 26.228 98.1124 26.356 98.7604 26.356C99.2724 26.356 99.6804 26.284 99.9844 26.14C100.296 25.988 100.452 25.792 100.452 25.552C100.452 25.36 100.328 25.204 100.08 25.084C99.8324 24.956 99.4364 24.852 98.8924 24.772L97.5604 24.592C96.3604 24.432 95.4884 24.148 94.9444 23.74C94.4004 23.324 94.1284 22.744 94.1284 22C94.1284 21.408 94.3124 20.896 94.6804 20.464C95.0564 20.024 95.5764 19.692 96.2404 19.468C96.9124 19.236 97.6804 19.12 98.5444 19.12C99.4724 19.12 100.304 19.284 101.04 19.612C101.776 19.94 102.304 20.38 102.624 20.932L101.028 22.084C100.78 21.756 100.428 21.496 99.9724 21.304C99.5244 21.104 99.0444 21.004 98.5324 21.004C98.0604 21.012 97.6724 21.088 97.3684 21.232C97.0724 21.376 96.9204 21.56 96.9124 21.784C96.9124 21.968 97.0204 22.116 97.2364 22.228C97.4524 22.332 97.8004 22.416 98.2804 22.48L99.6364 22.66C100.884 22.812 101.792 23.1 102.36 23.524C102.936 23.94 103.224 24.528 103.224 25.288C103.224 25.896 103.032 26.428 102.648 26.884C102.272 27.332 101.736 27.676 101.04 27.916C100.344 28.156 99.5364 28.276 98.6164 28.276ZM106.524 21.616H103.644V19.408H112.272V21.616H109.392V28H106.524V21.616ZM118.588 28.3C117.484 28.3 116.508 28.112 115.66 27.736C114.82 27.352 114.168 26.812 113.704 26.116C113.248 25.42 113.02 24.616 113.02 23.704C113.02 22.792 113.248 21.988 113.704 21.292C114.168 20.596 114.82 20.06 115.66 19.684C116.508 19.3 117.484 19.108 118.588 19.108C119.692 19.108 120.664 19.3 121.504 19.684C122.344 20.06 122.992 20.596 123.448 21.292C123.912 21.988 124.144 22.792 124.144 23.704C124.144 24.616 123.912 25.42 123.448 26.116C122.992 26.812 122.344 27.352 121.504 27.736C120.664 28.112 119.692 28.3 118.588 28.3ZM118.588 26.092C119.124 26.092 119.592 25.992 119.992 25.792C120.4 25.592 120.716 25.312 120.94 24.952C121.164 24.592 121.276 24.176 121.276 23.704C121.276 23.232 121.164 22.816 120.94 22.456C120.716 22.088 120.4 21.808 119.992 21.616C119.592 21.416 119.124 21.316 118.588 21.316C118.052 21.316 117.58 21.416 117.172 21.616C116.764 21.808 116.448 22.088 116.224 22.456C116 22.816 115.888 23.232 115.888 23.704C115.888 24.176 116 24.592 116.224 24.952C116.448 25.312 116.764 25.592 117.172 25.792C117.58 25.992 118.052 26.092 118.588 26.092ZM133.576 28.216C133.056 28.216 132.616 28.084 132.256 27.82C131.896 27.556 131.612 27.204 131.404 26.764L130.984 25.816C130.864 25.576 130.704 25.388 130.504 25.252C130.304 25.116 130.084 25.048 129.844 25.048H128.488V28H125.62V19.408H131.476C132.588 19.408 133.452 19.648 134.068 20.128C134.692 20.608 135.004 21.28 135.004 22.144C135.004 22.752 134.812 23.268 134.428 23.692C134.044 24.108 133.504 24.396 132.808 24.556V24.568C133.136 24.68 133.396 24.944 133.588 25.36L133.996 26.188C134.132 26.452 134.328 26.584 134.584 26.584C134.68 26.584 134.78 26.56 134.884 26.512C134.996 26.464 135.088 26.4 135.16 26.32L135.64 27.544C135.408 27.744 135.1 27.904 134.716 28.024C134.34 28.152 133.96 28.216 133.576 28.216ZM130.804 23.32C131.22 23.32 131.544 23.232 131.776 23.056C132.016 22.872 132.136 22.62 132.136 22.3C132.136 21.98 132.02 21.728 131.788 21.544C131.556 21.36 131.232 21.268 130.816 21.268H128.488V23.32H130.804ZM136.784 19.408H144.38V21.4H139.556V22.768H143.9V24.484H139.556V26.008H144.5V28H136.784V19.408Z" fill="white"/>
<rect x="0.5" y="0.5" width="169" height="49" rx="6.5" stroke="white"/>
</svg>
