<svg width="170" height="50" viewBox="0 0 170 50" fill="none" xmlns="http://www.w3.org/2000/svg">
<rect x="0.5" y="0.5" width="169" height="49" rx="6.5" fill="black"/>
<path fill-rule="evenodd" clip-rule="evenodd" d="M12.5049 35.3146L21.8176 26.0284L25.1002 29.3012L14.0295 35.4392C13.6086 35.6727 13.093 35.6692 12.6747 35.4295L12.5049 35.3146ZM20.8785 25.0919L12 33.9448V16.2391L20.8785 25.0919ZM26.4267 21.4336L30.7642 23.838C31.1904 24.075 31.4548 24.5189 31.4548 25C31.4548 25.481 31.1904 25.9249 30.7642 26.1619L26.3082 28.6318L22.7576 25.0919L26.4267 21.4336ZM12.4068 14.7712C12.4864 14.6942 12.5757 14.627 12.6747 14.5704C13.093 14.3308 13.6086 14.3273 14.0295 14.5607L25.2187 20.7642L21.8176 24.1554L12.4068 14.7712Z" fill="#00D54B"/>
<path d="M54.581 28.228C53.629 28.228 52.785 28.044 52.049 27.676C51.313 27.3 50.741 26.776 50.333 26.104C49.933 25.432 49.733 24.66 49.733 23.788C49.733 22.876 49.957 22.068 50.405 21.364C50.853 20.66 51.481 20.116 52.289 19.732C53.097 19.34 54.029 19.144 55.085 19.144C55.861 19.144 56.577 19.264 57.233 19.504C57.889 19.744 58.429 20.08 58.853 20.512C59.285 20.944 59.565 21.44 59.693 22L57.029 22.48C56.925 22.136 56.689 21.856 56.321 21.64C55.953 21.424 55.533 21.316 55.061 21.316C54.581 21.316 54.153 21.42 53.777 21.628C53.401 21.828 53.109 22.112 52.901 22.48C52.701 22.848 52.601 23.272 52.601 23.752C52.601 24.224 52.717 24.644 52.949 25.012C53.189 25.38 53.521 25.668 53.945 25.876C54.377 26.076 54.869 26.176 55.421 26.176C55.861 26.176 56.261 26.108 56.621 25.972C56.981 25.836 57.269 25.648 57.485 25.408C57.709 25.168 57.833 24.896 57.857 24.592H53.993V23.044H60.629V28H58.469L58.277 26.524H58.265C57.945 27.052 57.453 27.468 56.789 27.772C56.125 28.076 55.389 28.228 54.581 28.228ZM67.4964 28.3C66.3924 28.3 65.4164 28.112 64.5684 27.736C63.7284 27.352 63.0764 26.812 62.6124 26.116C62.1564 25.42 61.9284 24.616 61.9284 23.704C61.9284 22.792 62.1564 21.988 62.6124 21.292C63.0764 20.596 63.7284 20.06 64.5684 19.684C65.4164 19.3 66.3924 19.108 67.4964 19.108C68.6004 19.108 69.5724 19.3 70.4124 19.684C71.2524 20.06 71.9004 20.596 72.3564 21.292C72.8204 21.988 73.0524 22.792 73.0524 23.704C73.0524 24.616 72.8204 25.42 72.3564 26.116C71.9004 26.812 71.2524 27.352 70.4124 27.736C69.5724 28.112 68.6004 28.3 67.4964 28.3ZM67.4964 26.092C68.0324 26.092 68.5004 25.992 68.9004 25.792C69.3084 25.592 69.6244 25.312 69.8484 24.952C70.0724 24.592 70.1844 24.176 70.1844 23.704C70.1844 23.232 70.0724 22.816 69.8484 22.456C69.6244 22.088 69.3084 21.808 68.9004 21.616C68.5004 21.416 68.0324 21.316 67.4964 21.316C66.9604 21.316 66.4884 21.416 66.0804 21.616C65.6724 21.808 65.3564 22.088 65.1324 22.456C64.9084 22.816 64.7964 23.232 64.7964 23.704C64.7964 24.176 64.9084 24.592 65.1324 24.952C65.3564 25.312 65.6724 25.592 66.0804 25.792C66.4884 25.992 66.9604 26.092 67.4964 26.092ZM79.844 28.3C78.74 28.3 77.764 28.112 76.916 27.736C76.076 27.352 75.424 26.812 74.96 26.116C74.504 25.42 74.276 24.616 74.276 23.704C74.276 22.792 74.504 21.988 74.96 21.292C75.424 20.596 76.076 20.06 76.916 19.684C77.764 19.3 78.74 19.108 79.844 19.108C80.948 19.108 81.92 19.3 82.76 19.684C83.6 20.06 84.248 20.596 84.704 21.292C85.168 21.988 85.4 22.792 85.4 23.704C85.4 24.616 85.168 25.42 84.704 26.116C84.248 26.812 83.6 27.352 82.76 27.736C81.92 28.112 80.948 28.3 79.844 28.3ZM79.844 26.092C80.38 26.092 80.848 25.992 81.248 25.792C81.656 25.592 81.972 25.312 82.196 24.952C82.42 24.592 82.532 24.176 82.532 23.704C82.532 23.232 82.42 22.816 82.196 22.456C81.972 22.088 81.656 21.808 81.248 21.616C80.848 21.416 80.38 21.316 79.844 21.316C79.308 21.316 78.836 21.416 78.428 21.616C78.02 21.808 77.704 22.088 77.48 22.456C77.256 22.816 77.144 23.232 77.144 23.704C77.144 24.176 77.256 24.592 77.48 24.952C77.704 25.312 78.02 25.592 78.428 25.792C78.836 25.992 79.308 26.092 79.844 26.092ZM91.4717 28.228C90.5197 28.228 89.6757 28.044 88.9397 27.676C88.2037 27.3 87.6317 26.776 87.2237 26.104C86.8237 25.432 86.6237 24.66 86.6237 23.788C86.6237 22.876 86.8477 22.068 87.2957 21.364C87.7437 20.66 88.3717 20.116 89.1797 19.732C89.9877 19.34 90.9197 19.144 91.9757 19.144C92.7517 19.144 93.4677 19.264 94.1237 19.504C94.7797 19.744 95.3197 20.08 95.7437 20.512C96.1757 20.944 96.4557 21.44 96.5837 22L93.9197 22.48C93.8157 22.136 93.5797 21.856 93.2117 21.64C92.8437 21.424 92.4237 21.316 91.9517 21.316C91.4717 21.316 91.0437 21.42 90.6677 21.628C90.2917 21.828 89.9997 22.112 89.7917 22.48C89.5917 22.848 89.4917 23.272 89.4917 23.752C89.4917 24.224 89.6077 24.644 89.8397 25.012C90.0797 25.38 90.4117 25.668 90.8357 25.876C91.2677 26.076 91.7597 26.176 92.3117 26.176C92.7517 26.176 93.1517 26.108 93.5117 25.972C93.8717 25.836 94.1597 25.648 94.3757 25.408C94.5997 25.168 94.7237 24.896 94.7477 24.592H90.8837V23.044H97.5197V28H95.3597L95.1677 26.524H95.1557C94.8357 27.052 94.3437 27.468 93.6797 27.772C93.0157 28.076 92.2797 28.228 91.4717 28.228ZM99.071 19.408H101.939V25.744H106.127V28H99.071V19.408ZM107.446 19.408H115.042V21.4H110.218V22.768H114.562V24.484H110.218V26.008H115.162V28H107.446V19.408ZM119.591 19.408H125.207C126.343 19.408 127.231 19.676 127.871 20.212C128.511 20.74 128.831 21.472 128.831 22.408C128.823 23.336 128.495 24.064 127.847 24.592C127.207 25.112 126.319 25.372 125.183 25.372H122.459L122.447 28H119.591V19.408ZM124.451 23.56C124.931 23.56 125.299 23.456 125.555 23.248C125.819 23.032 125.951 22.736 125.951 22.36C125.951 22 125.819 21.72 125.555 21.52C125.291 21.32 124.923 21.22 124.451 21.22H122.447L122.459 23.56H124.451ZM130.169 19.408H133.037V25.744H137.225V28H130.169V19.408ZM141.592 19.408H145L148.588 28H145.612L145.06 26.5H141.484L140.92 28H137.956L141.592 19.408ZM144.544 24.736L143.284 21.364H143.26L141.988 24.736H144.544ZM151.243 25.072L147.655 19.408H150.667L152.671 22.936H152.683L154.567 19.408H157.615L154.099 25.072V28H151.243V25.072Z" fill="white"/>
<rect x="0.5" y="0.5" width="169" height="49" rx="6.5" stroke="white"/>
</svg>
